<svg xmlns="http://www.w3.org/2000/svg" viewBox="0 0 512 512" width="512" height="512">
  <!-- Background: soft off-white/light gray -->
  <rect width="512" height="512" rx="100" fill="#f1f5f9"/>

  <!-- Smog cloud (back layer, wider) -->
  <ellipse cx="256" cy="295" rx="195" ry="62" fill="#94a3b8" opacity="0.28"/>
  <ellipse cx="175" cy="285" rx="90" ry="45" fill="#94a3b8" opacity="0.22"/>
  <ellipse cx="340" cy="280" rx="100" ry="48" fill="#94a3b8" opacity="0.22"/>

  <!-- Main skyscraper -->
  <rect x="216" y="90" width="80" height="300" rx="6" fill="#334155"/>

  <!-- Windows on main tower -->
  <rect x="228" y="108" width="14" height="10" rx="2" fill="#7dd3fc" opacity="0.85"/>
  <rect x="250" y="108" width="14" height="10" rx="2" fill="#7dd3fc" opacity="0.85"/>
  <rect x="272" y="108" width="14" height="10" rx="2" fill="#7dd3fc" opacity="0.85"/>

  <rect x="228" y="128" width="14" height="10" rx="2" fill="#7dd3fc" opacity="0.7"/>
  <rect x="250" y="128" width="14" height="10" rx="2" fill="#7dd3fc" opacity="0.4"/>
  <rect x="272" y="128" width="14" height="10" rx="2" fill="#7dd3fc" opacity="0.7"/>

  <rect x="228" y="148" width="14" height="10" rx="2" fill="#7dd3fc" opacity="0.6"/>
  <rect x="250" y="148" width="14" height="10" rx="2" fill="#7dd3fc" opacity="0.7"/>
  <rect x="272" y="148" width="14" height="10" rx="2" fill="#7dd3fc" opacity="0.4"/>

  <rect x="228" y="168" width="14" height="10" rx="2" fill="#7dd3fc" opacity="0.5"/>
  <rect x="250" y="168" width="14" height="10" rx="2" fill="#7dd3fc" opacity="0.6"/>
  <rect x="272" y="168" width="14" height="10" rx="2" fill="#7dd3fc" opacity="0.5"/>

  <!-- Left wing building -->
  <rect x="148" y="185" width="62" height="205" rx="5" fill="#475569"/>
  <rect x="158" y="200" width="10" height="8" rx="2" fill="#7dd3fc" opacity="0.6"/>
  <rect x="174" y="200" width="10" height="8" rx="2" fill="#7dd3fc" opacity="0.5"/>
  <rect x="190" y="200" width="10" height="8" rx="2" fill="#7dd3fc" opacity="0.6"/>
  <rect x="158" y="218" width="10" height="8" rx="2" fill="#7dd3fc" opacity="0.4"/>
  <rect x="174" y="218" width="10" height="8" rx="2" fill="#7dd3fc" opacity="0.55"/>
  <rect x="190" y="218" width="10" height="8" rx="2" fill="#7dd3fc" opacity="0.4"/>

  <!-- Right wing building -->
  <rect x="302" y="200" width="62" height="190" rx="5" fill="#475569"/>
  <rect x="312" y="215" width="10" height="8" rx="2" fill="#7dd3fc" opacity="0.55"/>
  <rect x="328" y="215" width="10" height="8" rx="2" fill="#7dd3fc" opacity="0.4"/>
  <rect x="344" y="215" width="10" height="8" rx="2" fill="#7dd3fc" opacity="0.55"/>
  <rect x="312" y="233" width="10" height="8" rx="2" fill="#7dd3fc" opacity="0.4"/>
  <rect x="328" y="233" width="10" height="8" rx="2" fill="#7dd3fc" opacity="0.6"/>
  <rect x="344" y="233" width="10" height="8" rx="2" fill="#7dd3fc" opacity="0.4"/>

  <!-- Smog cloud (front layer, denser) -->
  <ellipse cx="256" cy="305" rx="180" ry="52" fill="#cbd5e1" opacity="0.55"/>
  <ellipse cx="180" cy="298" rx="80" ry="38" fill="#cbd5e1" opacity="0.45"/>
  <ellipse cx="330" cy="295" rx="85" ry="36" fill="#cbd5e1" opacity="0.45"/>
  <ellipse cx="256" cy="315" rx="145" ry="38" fill="#e2e8f0" opacity="0.5"/>

  <!-- Ground -->
  <rect x="100" y="388" width="312" height="8" rx="4" fill="#94a3b8" opacity="0.35"/>
</svg>
